<?xml version="1.0" encoding="UTF-8" standalone="no"?>
<svg
   xmlns:dc="http://purl.org/dc/elements/1.1/"
   xmlns:cc="http://creativecommons.org/ns#"
   xmlns:rdf="http://www.w3.org/1999/02/22-rdf-syntax-ns#"
   xmlns:svg="http://www.w3.org/2000/svg"
   xmlns="http://www.w3.org/2000/svg"
   xmlns:sodipodi="http://sodipodi.sourceforge.net/DTD/sodipodi-0.dtd"
   xmlns:inkscape="http://www.inkscape.org/namespaces/inkscape"
   sodipodi:docname="drawing.svg"
   inkscape:version="1.0.1 (c497b03c, 2020-09-10)"
   id="svg8"
   version="1.1"
   viewBox="0 0 210 210"
   height="210mm"
   width="210mm">
  <defs
     id="defs2" />
  <sodipodi:namedview
     id="base"
     pagecolor="#ffffff"
     bordercolor="#666666"
     borderopacity="1.0"
     inkscape:pageopacity="0.0"
     inkscape:pageshadow="2"
     inkscape:zoom="3.3577274"
     inkscape:cx="318.68704"
     inkscape:cy="246.82491"
     inkscape:document-units="mm"
     inkscape:current-layer="head"
     inkscape:document-rotation="0"
     showgrid="false"
     inkscape:window-width="1920"
     inkscape:window-height="1035"
     inkscape:window-x="1680"
     inkscape:window-y="23"
     inkscape:window-maximized="0"
     inkscape:snap-nodes="false"
     inkscape:snap-others="false"
     showguides="true" />
  <metadata
     id="metadata5">
    <rdf:RDF>
      <cc:Work
         rdf:about="">
        <dc:format>image/svg+xml</dc:format>
        <dc:type
           rdf:resource="http://purl.org/dc/dcmitype/StillImage" />
        <dc:title />
      </cc:Work>
    </rdf:RDF>
  </metadata>
  <g
     inkscape:groupmode="layer"
     id="root"
     inkscape:label="root">
    <g
       id="body">
      <path
         id="path1235"
         style="fill:#d90000;fill-opacity:1;stroke:#000000;stroke-width:0.850933px;stroke-linecap:round;stroke-linejoin:round;stroke-opacity:1"
         d="m 83.92942,134.46519 c -2.796502,0.23142 -9.595422,2.2017 -9.618834,2.09031 l -5.902264,13.02748 c -4.226339,0.24861 3.922538,11.42498 5.136941,11.3057 0.364105,-0.0692 24.97751,9.49276 25.19597,9.21559 0.21846,-0.27691 28.836997,-5.33534 29.492387,-5.95894 0.65539,-0.62364 11.61824,-10.86232 10.81504,-10.80257 -1.79063,0.1332 2.25821,-14.28949 -2.82594,-16.57736 0,0 -8.36506,-2.94999 -13.37242,-2.84166" />
      <path
         style="fill:#480000;fill-opacity:1;stroke:#000000;stroke-width:0.881317px;stroke-linecap:round;stroke-linejoin:round;stroke-opacity:1"
         d="m 158.56088,201.79521 c -1.53324,0.31734 2.93627,-52.69281 -6.58419,-59.54775 -1.84209,-1.32633 -15.23484,-6.43591 -15.23484,-5.00548 -0.17868,2.36809 3.11296,14.36118 -9.14253,21.10178 l -4.74029,2.25412 c -8.05622,3.27676 -18.74748,5.00726 -32.700572,3.13935 -5.456269,-0.73046 -9.559497,-1.92784 -12.604247,-3.42565 l -4.785407,-3.36764 c -8.409818,-8.75213 5.465727,-20.47694 1.654092,-20.97297 -6.847253,1.45135 -12.58314,4.96615 -14.120126,7.6867 -3.830038,6.77946 -5.376874,27.04805 -6.411395,57.84095"
         id="path1217" />
      <path
         style="fill:#d90000;fill-opacity:1;stroke:#000000;stroke-width:0.850933px;stroke-linecap:round;stroke-linejoin:round;stroke-opacity:1"
         d="m 96.318168,158.53042 c -1.558289,-2.83067 -18.232351,0.41938 -21.7033,5.38319 -4.996893,7.14609 8.687926,-26.49983 9.346391,-28.84192 0.562843,-2.00195 4.104879,-4.70203 7.240469,-6.02255 m 22.022242,-0.62445 c 2.49938,0.44912 5.64103,1.36648 8.01157,3.11084 3.96804,2.9199 2.69904,14.28149 3.21521,17.5913 0.87015,5.57951 3.81914,10.49783 2.67935,10.96261 -1.08303,1.10457 -12.59811,-4.21286 -16.61771,-4.52794 -4.53951,-0.35586 -3.53954,2.8765 -3.53954,2.8765"
         id="path1271" />
      <path
         style="fill:#ffccaa;fill-opacity:1;stroke:none;stroke-width:0.852275;stroke-linecap:round;stroke-linejoin:round;stroke-miterlimit:4;stroke-dasharray:none;stroke-opacity:1"
         d="m 113.46629,122.21584 c 0,0 -0.54045,7.89613 -0.65183,10.65114 -0.0557,1.37746 1.15101,1.08348 2.86316,1.50731 -0.96391,3.75813 -0.43873,12.09028 -3.32386,14.74048 -5.13196,5.76422 -7.09391,5.9817 -7.11347,6.08051 -0.2956,0.39492 -1.33822,8.90328 -1.33822,8.90328 l -3.61563,-0.0428 c 0,0 -0.501379,-5.02492 -0.760807,-7.67975 -0.56611,-1.16703 -1.586977,-2.42203 -4.102447,-2.12704 -1.076067,0.74429 -8.712505,-9.23145 -5.848487,-18.11852 0.255919,-0.25591 3.671468,0.93002 2.814926,-3.26458 0.17893,-2.1644 -0.658532,-10.27572 -0.780992,-10.17863 l 21.908957,-0.4714"
         id="path1275" />
      <path
         style="fill:none;stroke:#000000;stroke-width:0.850933px;stroke-linecap:round;stroke-linejoin:round;stroke-opacity:1"
         d="m 104.03888,164.2252 c -0.10499,-0.31251 0.18785,-6.49114 0.70805,-8.26899 0.52817,-1.80514 2.79232,-1.26199 5.95126,-4.36224 3.15894,-3.10025 4.7967,-12.12061 4.76563,-16.04823 -0.0311,-3.92762 -0.41733,-4.65482 -2.08744,-5.58124 m -21.55272,2.79589 c -4.665605,1.82836 -2.699809,11.36018 -2.092714,12.75579 0.833408,1.91587 3.651274,8.38027 5.53564,8.49339 3.083386,0.1851 4.539435,2.2286 4.476656,3.18679 -0.157302,2.40091 0.550408,6.35192 0.490968,7.09942"
         id="path1221" />
      <path
         style="fill:none;fill-opacity:1;stroke:#000000;stroke-width:0.852275;stroke-linecap:round;stroke-linejoin:round;stroke-miterlimit:4;stroke-dasharray:none;stroke-opacity:1"
         d="m 89.663546,136.2254 c 0.996037,-0.16615 2.564774,0.10879 2.43854,-1.92616 -0.207488,-3.68875 -0.559116,-6.65261 -0.623375,-11.5801 m 22.045229,-0.37839 c 0,0 -0.59812,7.4038 -0.7095,10.15878 0.1734,-0.033 -0.75296,2.12758 2.49716,1.95375"
         id="path1225" />
      <path
         style="fill:none;stroke:#000000;stroke-width:0.834929px;stroke-linecap:round;stroke-linejoin:round;stroke-opacity:1"
         d="m 138.51268,164.22632 c 0,0 0.20496,34.73162 0.18527,36.25623"
         id="path1227" />
      <path
         style="fill:none;stroke:#000000;stroke-width:0.94533px;stroke-linecap:round;stroke-linejoin:round;stroke-opacity:1"
         d="m 77.093702,163.94729 c 0,0 0.281647,31.77858 -0.50954,36.59029"
         id="path1229" />
      <path
         style="opacity:1;fill:none;fill-opacity:1;stroke:none;stroke-width:0.0862514;stroke-linecap:round;stroke-linejoin:round;stroke-miterlimit:4;stroke-dasharray:none;stroke-opacity:1"
         d="m 75.507423,154.76258 c -0.505084,-0.74222 -0.958321,-1.70648 -1.245923,-2.65064 -0.204055,-0.66989 -0.233724,-0.99196 -0.233724,-2.54011 0,-3.0963 0.545708,-4.76194 3.45299,-10.53937 0.517964,-1.02931 0.996804,-2.10417 1.064106,-2.3886 0.06738,-0.28449 0.148245,-0.51713 0.179826,-0.51713 0.0597,0 3.809905,-0.45277 4.486475,-0.54168 l 0.384435,-0.0504 -0.402167,1.10869 c -0.22123,0.60976 -1.635448,4.25572 -3.14279,8.10208 -1.507345,3.84636 -3.03139,7.7691 -3.386765,8.71715 -0.355376,0.94804 -0.674846,1.75494 -0.709931,1.79314 -0.03507,0.0382 -0.236065,-0.18394 -0.446551,-0.49309 z"
         id="path1256" />
      <path
         style="opacity:1;fill:none;fill-opacity:1;stroke:none;stroke-width:0.0862514;stroke-linecap:round;stroke-linejoin:round;stroke-miterlimit:4;stroke-dasharray:none;stroke-opacity:1"
         d="m 75.507423,154.76258 c -0.505084,-0.74222 -0.958321,-1.70648 -1.245923,-2.65064 -0.204055,-0.66989 -0.233724,-0.99196 -0.233724,-2.54011 0,-3.0963 0.545708,-4.76194 3.45299,-10.53937 0.517964,-1.02931 0.996804,-2.10417 1.064106,-2.3886 0.06738,-0.28449 0.148245,-0.51713 0.179826,-0.51713 0.0597,0 3.809905,-0.45277 4.486475,-0.54168 l 0.384435,-0.0504 -0.402167,1.10869 c -0.22123,0.60976 -1.635448,4.25572 -3.14279,8.10208 -1.507345,3.84636 -3.03139,7.7691 -3.386765,8.71715 -0.355376,0.94804 -0.674846,1.75494 -0.709931,1.79314 -0.03507,0.0382 -0.236065,-0.18394 -0.446551,-0.49309 z"
         id="path1258" />
      <path
         style="opacity:1;fill:none;fill-opacity:1;stroke:none;stroke-width:0.0862514;stroke-linecap:round;stroke-linejoin:round;stroke-miterlimit:4;stroke-dasharray:none;stroke-opacity:1"
         d="m 95.300566,162.9473 c -3.983411,-0.41876 -8.426794,-1.32573 -11.058054,-2.25717 -1.15933,-0.41041 -2.554814,-1.00567 -2.493208,-1.06352 0.116037,-0.10945 2.270422,-0.87091 3.313187,-1.17165 3.823407,-1.10289 6.85876,-1.20469 7.808068,-0.26208 0.679899,0.67526 1.354504,0.0409 0.719804,-0.67661 -0.248064,-0.28054 -0.283864,-0.48762 -0.724617,-4.19269 -0.25502,-2.1437 -0.46366,-3.92785 -0.46366,-3.96477 0,-0.0373 0.410556,0.54996 0.912357,1.3041 0.501785,0.75415 1.240564,1.85872 1.641722,2.45463 1.09689,1.62945 1.206843,1.866 1.128507,2.42786 -0.03636,0.26043 -0.369788,1.37238 -0.74101,2.47046 -0.65841,1.94772 -0.866272,2.93935 -0.726892,3.46775 0.03778,0.14307 0.323588,0.52434 0.635057,0.84671 0.551862,0.57119 0.647854,0.70292 0.488681,0.67062 -0.04266,-0.01 -0.24068,-0.033 -0.439942,-0.0541 z"
         id="path1260" />
      <path
         style="opacity:1;fill:none;fill-opacity:1;stroke:none;stroke-width:0.0862514;stroke-linecap:round;stroke-linejoin:round;stroke-miterlimit:4;stroke-dasharray:none;stroke-opacity:1"
         d="m 99.635103,163.24682 c -0.10024,-0.0264 -0.1941,-0.19054 -0.23178,-0.40718 -0.10786,-0.62084 -0.072,-2.68549 0.0537,-3.08443 0.0735,-0.23307 0.673017,-1.0331 1.559027,-2.07992 0.79186,-0.93559 2.12402,-2.52844 2.96035,-3.53971 0.83633,-1.01125 1.53159,-1.82816 1.54501,-1.81537 0.0135,0.0132 -0.30074,0.94907 -0.69819,2.08064 -0.43783,1.24668 -0.7896,2.09313 -0.8926,2.14799 -0.40647,0.21625 -0.96795,0.79647 -1.18671,1.22591 -0.1883,0.36961 -0.23811,0.63854 -0.24289,1.31152 -0.006,0.91492 0.10417,1.17265 0.50354,1.17265 0.38263,0 0.47385,-0.19021 0.47385,-0.98916 0,-1.00525 0.26873,-1.51281 0.9874,-1.86488 1.07427,-0.52629 2.44317,-0.39493 7.81155,0.74966 1.67957,0.3581 4.34993,0.92662 5.93414,1.2634 l 2.8804,0.61229 -1.01709,0.37159 c -4.22603,1.54409 -8.94354,2.49382 -13.95671,2.8097 -1.51364,0.0956 -6.146637,0.12065 -6.482987,0.0353 z"
         id="path1262" />
      <path
         style="opacity:1;fill:none;fill-opacity:1;stroke:none;stroke-width:0.0862514;stroke-linecap:round;stroke-linejoin:round;stroke-miterlimit:4;stroke-dasharray:none;stroke-opacity:1"
         d="m 126.52864,154.95793 c -1.50345,-4.43944 -1.6062,-5.00433 -1.72301,-9.4738 -0.14749,-5.6426 -0.29774,-7.5892 -0.73337,-9.5005 -0.11053,-0.48505 -0.20099,-0.91762 -0.20099,-0.96123 0,-0.20999 3.37104,0.38276 6.03585,1.06181 3.69291,0.94106 12.07963,3.56454 12.07963,3.77875 0,0.2535 -0.74304,2.12121 -1.24459,3.12817 -2.43408,4.88704 -7.00934,9.79834 -12.32466,13.22996 l -1.19896,0.7741 z"
         id="path1264" />
      <path
         style="opacity:1;fill:none;fill-opacity:1;stroke:none;stroke-width:0.0862514;stroke-linecap:round;stroke-linejoin:round;stroke-miterlimit:4;stroke-dasharray:none;stroke-opacity:1"
         d="m 124.17182,159.61533 c -1.47014,-0.21823 -4.25982,-0.77389 -8.63368,-1.72039 -7.34641,-1.58968 -8.97194,-1.85367 -10.30656,-1.67358 -0.40815,0.0547 -0.78325,0.12428 -0.83356,0.15428 -0.0504,0.0297 -0.0914,0.0132 -0.0914,-0.0297 0,-0.0982 7.14568,-20.84469 7.1966,-20.89423 0.0195,-0.0165 0.12761,0.13812 0.24068,0.349 0.42272,0.78846 1.68729,1.60656 2.94886,1.9078 0.46146,0.10978 0.51711,0.10351 0.71737,-0.0874 0.18457,-0.1757 0.1993,-0.24361 0.0985,-0.45426 -0.0683,-0.14274 -0.24082,-0.27493 -0.4068,-0.31218 -0.48664,-0.10911 -1.30133,-0.45528 -1.75397,-0.74548 -0.61302,-0.39308 -0.88617,-0.8569 -0.87821,-1.49141 0.008,-0.63597 0.45895,-2.31344 1.13038,-4.20489 0.59587,-1.67856 0.37748,-1.58764 2.35229,-0.97914 2.60547,0.80291 4.97302,2.18128 5.86469,3.41445 0.61923,0.85641 1.18269,2.48034 1.47902,4.26258 0.28943,1.74086 0.37178,2.99292 0.47089,7.1598 0.0679,2.85239 0.15085,4.48947 0.26464,5.22041 0.24006,1.54163 0.8325,3.65668 1.85724,6.63005 0.49476,1.43564 0.92522,2.84293 0.95655,3.12732 l 0.057,0.51716 -0.92025,-0.01 c -0.50614,-0.007 -1.32071,-0.0689 -1.81015,-0.14142 z"
         id="path1266" />
      <path
         style="opacity:1;fill:none;fill-opacity:1;stroke:none;stroke-width:0.0862514;stroke-linecap:round;stroke-linejoin:round;stroke-miterlimit:4;stroke-dasharray:none;stroke-opacity:1"
         d="m 97.575483,163.14242 c -0.430627,-0.033 -0.492816,-0.0732 -0.773291,-0.49939 -0.167761,-0.25449 -0.53385,-0.6955 -0.813541,-0.9792 l -0.508523,-0.51587 0.126027,-0.61688 c 0.06936,-0.33945 0.408047,-1.43689 0.752709,-2.43914 0.70468,-2.04902 0.853419,-3.0092 0.567162,-3.66112 -0.155333,-0.35372 -0.791286,-1.3381 -2.630114,-4.07099 -0.510322,-0.75846 -1.209394,-1.84441 -1.553529,-2.41326 l -0.625684,-1.03422 -0.387672,-3.28288 -0.387669,-3.28291 0.275986,-0.51901 c 0.417907,-0.78596 0.519576,-1.639 0.379572,-3.18478 -0.209725,-2.31531 -0.808972,-4.76915 -1.649313,-6.75347 -0.179529,-0.42396 -0.326456,-0.77976 -0.326456,-0.79063 0,-0.01 0.570643,0.0425 1.268086,0.11834 1.705938,0.18592 8.37547,0.20966 10.015267,0.0353 4.62345,-0.49088 8.37251,-1.33717 11.67406,-2.63541 0.60486,-0.23801 1.11312,-0.41971 1.12946,-0.40418 0.0162,0.0132 -0.31192,0.91168 -0.72952,1.99143 -1.22766,3.17436 -1.92626,5.54272 -1.92839,6.53768 -6.2e-4,0.30328 -0.75384,2.6242 -2.45446,7.56313 l -2.45353,7.12554 -1.81778,2.23746 c -0.99978,1.23063 -2.69919,3.27909 -3.77649,4.55221 -1.077277,1.27309 -2.063167,2.49204 -2.190857,2.70872 -0.36382,0.61744 -0.47913,1.48183 -0.39623,2.97031 0.0696,1.25034 0.0637,1.3135 -0.12191,1.29662 -0.1073,-0.01 -0.40584,-0.0353 -0.6634,-0.0537 z"
         id="path1268" />
    </g>
    <g
       id="head"
       style="display:inline">
      <path
         style="fill:#5c3607;fill-opacity:1;stroke:#000000;stroke-width:0.850933;stroke-linecap:round;stroke-linejoin:round;stroke-opacity:1"
         d="m 116.5713,74.91385 c 10.035,2.6816 18.4157,-2.75695 19.0207,5.49665 0.219,0.807412 2.717,1.316219 5.039,-8.8828 0.392,-2.7709 0.7125,-10.11245 -2.252,-17.0305 -2.9645,-6.91805 -4.14204,-9.038092 -7.59839,-11.891083 -3.45635,-2.852991 -35.068992,-11.057049 -55.102752,3.756529 -8.25056,6.100718 -11.789814,16.728789 -11.949136,21.667765 -0.159321,4.938976 0.159322,6.850838 0.159322,6.850838 l 3.345758,1.433896 c 8.82379,-11.056052 7.106917,-8.079713 49.337498,-1.401295 z"
         id="hair_back"
         sodipodi:nodetypes="ccczzssccc" />
      <g
         id="right_ear">
        <path
           style="fill:#ffccaa;fill-opacity:1;stroke:#000000;stroke-width:0.597337;stroke-linecap:round;stroke-linejoin:round;stroke-opacity:1"
           d="m 134.0441,85.267289 c 1.21738,-5.633542 2.0339,-8.297189 3.5929,-11.015989 0.987,-1.7225 2.358,-2.9324 4.204,-2.2891 4.76,1.6587 6.267,12.8788 2.603,22.0895 -3.662,9.2103 -9.04364,4.404065 -9.04364,4.404065 -2.35994,-1.461568 -2.57363,-7.554934 -1.35626,-13.188476 z"
           id="path1187"
           sodipodi:nodetypes="zccccz" />
        <path
           style="fill:none;stroke:#000000;stroke-linecap:round;stroke-linejoin:round;stroke-opacity:1;stroke-width:0.5072394731052887"
           d="M 143.749 81.9284 C 143.749 81.9284 143.419 76.1503 141.48 78.7002 C 139.54 81.2501 137.545 92.7878 138.068 95.019 C 138.591 97.2502 142.409 89.0545 141.424 85.6242"
           id="path1189" />
      </g>
      <g
         id="left_ear">
        <path
           style="fill:#ffccaa;fill-opacity:1;stroke:#000000;stroke-linecap:round;stroke-linejoin:round;stroke-opacity:1;stroke-width:0.597337"
           d="M 70.5579 86.2232 C 69.3405 80.5897 68.524 77.926 66.965 75.2072 C 65.978 73.4847 64.607 72.2748 62.761 72.9181 C 58.001 74.5768 56.494 85.7969 60.158 95.0076 C 63.82 104.218 69.2016 99.4117 69.2016 99.4117 C 71.5616 97.9501 71.7753 91.8568 70.5579 86.2232 Z"
           id="path142" />
        <path
           style="fill:none;stroke:#000000;stroke-linecap:round;stroke-linejoin:round;stroke-opacity:1;stroke-width:0.507239"
           d="M 60.853 82.8843 C 60.853 82.8843 61.183 77.1062 63.122 79.6561 C 65.062 82.206 67.057 93.7437 66.534 95.9749 C 66.011 98.2061 62.193 90.0104 63.178 86.5801"
           id="path144" />
      </g>
      <path
         style="display:inline;fill:#ffccaa;fill-opacity:1;stroke:#000000;stroke-width:0.764785;stroke-linecap:round;stroke-linejoin:round;stroke-opacity:1"
         d="m 135.386,95.725 c -0.203,7.16 -0.571,13.491 -8.581,24.378 -8.01,10.887 -39.5195,16.54 -50.3206,0.058 -10.8012,-16.482 -8.7246,-42.9329 -8.7858,-46.1845 5.1432,-19.6392 3.819027,-19.484394 21.5137,-23.072092 17.69467,-3.587698 43.27185,10.696589 45.34863,18.912164 2.07678,8.215575 1.54373,15.792012 0.82507,25.908428 z"
         id="face"
         sodipodi:nodetypes="cscczzc" />
      <path
         style="display:inline;fill:#3e1800;fill-opacity:1;stroke:#000000;stroke-width:0.69277;stroke-linecap:round;stroke-linejoin:round;stroke-opacity:1"
         d="m 114.793,22.8683 c -0.494,-1.1631 -21.8028,-5.441 -30.0443,-2.3492 -10.957,6.7142 -11.4764,22.7441 -31.2543,20.9073 0,0 2.1755,5.5757 6.5019,6.4603 4.3263,0.8848 22.3747,-0.6387 24.7164,-2.5209 2.3416,-1.8822 30.0803,-22.4975 30.0803,-22.4975 z"
         id="hair_mid" />
      <path
         style="fill:none;stroke:#000000;stroke-linecap:round;stroke-linejoin:round;stroke-opacity:1;stroke-width:0.726305"
         d="M 100.285 80.7134 C 100.285 80.7134 102.911 92.9324 98.9108 96.9632 C 91.6977 104.233 98.1277 107.166 101.203 108.493"
         id="nose" />
      <g
         id="mouth">
        <ellipse
           style="opacity:1;fill:#550000;fill-opacity:1;fill-rule:evenodd;stroke:none;stroke-width:0.67241;stroke-linecap:round;stroke-linejoin:round;stroke-miterlimit:4;stroke-dasharray:none;stroke-opacity:1"
           id="mouth_inner"
           ry="4.860774920143418"
           rx="10.177995858157507"
           cy="119.483890674136"
           cx="103.979005066992" />
        <path
           style="fill:#aa0000;stroke:#000000;stroke-linecap:butt;stroke-linejoin:miter;stroke-opacity:1;stroke-width:0.8464434774920001"
           d="M 113.79 120.791 C 113.79 120.791 108.902 116.435 102.812 117.993 C 96.7219 119.549 92.5637 121.457 92.5637 121.457 C 92.5637 121.457 98.4749 124.364 105.349 122.886 C 112.224 121.408 113.79 120.791 113.79 120.791 Z"
           id="tongue" />
        <path
           id="mouth_mask"
           style="fill:#ffccaa;fill-opacity:1;fill-rule:evenodd;stroke:none;stroke-dasharray:none;stroke-linecap:round;stroke-linejoin:round;stroke-miterlimit:4;stroke-opacity:1;stroke-width:0.7997909218920001"
           d="M 95.7228 117.562 C 95.4755 114.843 98.0366 116.479 101.938 116.353 C 105.805 116.228 106.494 115.592 107.302 117.45 C 108.168 119.437 105.668 119.896 102.336 120.005 C 98.3498 120.134 95.7932 118.337 95.7228 117.562 Z M 116.292 119.472 C 115.336 124.521 110.891 127.08 101.447 125.369 C 92.004 123.659 86.3045 121.574 87.2604 116.526 C 88.2163 111.477 96.6466 108.771 106.09 110.482 C 115.533 112.191 117.247 114.424 116.292 119.472 Z" />
        <path
           style="fill:none;fill-opacity:1;fill-rule:evenodd;stroke:#000000;stroke-dasharray:none;stroke-linecap:round;stroke-linejoin:round;stroke-miterlimit:4;stroke-opacity:1;stroke-width:0.7997909218920001"
           d="M 95.8213 116.621 C 96.253 115.123 98.1594 116.606 101.938 116.353 C 105.83 116.091 106.465 115.525 106.916 117.057 C 107.528 119.14 105.933 119.869 101.238 119.794 C 96.5418 119.719 95.3932 118.107 95.8213 116.621 Z"
           id="mouth_line" />
      </g>
      <g
         id="right_eye">
        <path
           id="right_eye_white"
           style="fill:#ffffff;fill-opacity:1;stroke:#000000;stroke-dasharray:none;stroke-linecap:round;stroke-linejoin:round;stroke-miterlimit:4;stroke-opacity:1;stroke-width:0.675657"
           d="M 129.278 81.6694 C 130.366 89.0062 127.262 97.7696 116.802 96.5346 C 107.917 95.4862 107.093 89.9052 108.453 81.3745 C 108.453 81.3745 109.579 74.8509 118.484 74.6478 C 127.389 74.4447 129.278 81.6694 129.278 81.6694 Z" />
        <path
           style="fill:#ffccaa;fill-opacity:1;stroke:none;stroke-linecap:butt;stroke-linejoin:miter;stroke-opacity:1;stroke-width:0.820958"
           d="M 108.176 82.2928 C 108.176 82.2928 114.641 76.0426 120.202 76.3981 C 125.764 76.7534 129.756 82.5203 129.756 82.5203 C 129.756 82.5203 131.683 76.1528 131.798 75.5996 C 131.914 75.0463 127.746 68.8253 127.746 68.8253 L 106.538 68.1854 Z"
           id="right_eye_brow" />
        <path
           style="fill:#000000;fill-opacity:1;stroke:#000000;stroke-dasharray:none;stroke-linecap:round;stroke-linejoin:round;stroke-miterlimit:4;stroke-opacity:1;stroke-width:0.670336"
           d="M 121.26 76.3224 C 113.519 75.7456 108.618 80.9114 108.064 81.9946 C 107.629 82.8449 113.586 75.9414 120.683 76.7258 C 127.781 77.5096 129.179 82.5919 129.352 83.036 C 129.936 84.5388 129 76.901 121.26 76.3224 Z"
           id="right_eye_lash" />
        <g
           id="right_iris">
          <path
             id="right_iris_back"
             style="fill:#803300;fill-opacity:1;opacity:1;stroke:#000000;stroke-dasharray:none;stroke-linecap:round;stroke-linejoin:round;stroke-miterlimit:4;stroke-opacity:1;stroke-width:0.692236"
             d="M 123.43 86.873 C 123.254 91.2958 120.945 94.8123 118.271 94.7271 C 115.599 94.642 113.574 90.9875 113.75 86.5646 C 113.926 82.1418 116.392 79.8872 119.066 79.9724 C 121.738 80.0575 123.607 82.4502 123.43 86.873 Z" />
          <ellipse
             style="opacity:1;fill:#4a1d00;fill-opacity:1;fill-rule:evenodd;stroke:none;stroke-width:0.264916;stroke-linecap:round;stroke-linejoin:round;stroke-miterlimit:4;stroke-dasharray:none;stroke-opacity:1"
             id="right_iris_pupil"
             cx="118.59956"
             cy="87.51432600000001"
             rx="2.7689352000000014"
             ry="4.447568399999994"
             sodipodi:insensitive="true" />
          <path
             style="fill:#4a1d00;fill-opacity:1;stroke:none;stroke-linecap:butt;stroke-linejoin:miter;stroke-opacity:1;stroke-width:0.832115"
             d="M 114.734 92.0307 C 114.734 92.0307 114.706 85.9884 118.462 86.1033 C 122.709 86.2324 122.214 89.679 121.834 92.1157 C 121.578 93.7528 123.952 85.5758 123.235 84.0701 C 122.665 82.8721 120.048 79.2408 118.584 79.9072 C 118.33 80.0228 115.638 80.6817 115.186 81.3384 C 114.954 81.6735 113.667 85.5079 113.667 85.5079 C 114.059 87.946 113.917 90.7852 114.734 92.0307 Z"
             id="right_iris_shadow" />
          <path
             id="right_eye_line"
             style="fill:none;fill-opacity:1;opacity:1;stroke:#000000;stroke-dasharray:none;stroke-linecap:round;stroke-linejoin:round;stroke-miterlimit:4;stroke-opacity:1;stroke-width:0.692236"
             d="M 113.779 86.5301 C 113.602 90.9529 115.627 94.6075 118.3 94.6926 C 120.973 94.7778 123.283 91.2613 123.459 86.8385 C 123.635 82.4156 121.355 80.0098 118.681 79.9248 C 116.009 79.8395 113.955 82.1074 113.779 86.5301 Z" />
        </g>
      </g>
      <g
         id="left_eye">
        <path
           id="left_eye_white"
           style="fill:#ffffff;fill-opacity:1;stroke:#000000;stroke-dasharray:none;stroke-linecap:round;stroke-linejoin:round;stroke-miterlimit:4;stroke-opacity:1;stroke-width:0.675657"
           d="M 73.8291 82.211 C 72.7411 89.5478 75.8451 98.3112 86.3051 97.0762 C 95.1901 96.0278 96.0141 90.4468 94.6541 81.9161 C 94.6541 81.9161 93.5281 75.3925 84.6231 75.1894 C 75.7181 74.9863 73.8291 82.211 73.8291 82.211 Z" />
        <path
           style="fill:#ffccaa;fill-opacity:1;stroke:none;stroke-linecap:butt;stroke-linejoin:miter;stroke-opacity:1;stroke-width:0.820958"
           d="M 94.9311 82.8344 C 94.9311 82.8344 88.4661 76.5842 82.9051 76.9397 C 77.3431 77.295 73.4174 83.1939 73.4174 83.1939 C 73.4174 83.1939 71.4241 76.6944 71.3091 76.1412 C 71.1931 75.5879 75.3611 69.3669 75.3611 69.3669 L 96.5691 68.727 Z"
           id="left_eye_brow" />
        <path
           style="fill:#000000;fill-opacity:1;stroke:#000000;stroke-dasharray:none;stroke-linecap:round;stroke-linejoin:round;stroke-miterlimit:4;stroke-opacity:1;stroke-width:0.670336"
           d="M 81.8471 76.864 C 89.5881 76.2872 94.4891 81.453 95.0431 82.5362 C 95.4781 83.3865 89.5211 76.483 82.4241 77.2674 C 75.3261 78.0512 73.9281 83.1335 73.7551 83.5776 C 73.1711 85.0804 74.1071 77.4426 81.8471 76.864 Z"
           id="left_eye_lash" />
        <g
           id="left_iris">
          <path
             id="path949"
             style="fill:#803300;fill-opacity:1;opacity:1;stroke:#000000;stroke-dasharray:none;stroke-linecap:round;stroke-linejoin:round;stroke-miterlimit:4;stroke-opacity:1;stroke-width:0.692236"
             d="M 79.6771 87.4146 C 79.8531 91.8374 82.1621 95.3539 84.8361 95.2687 C 87.5081 95.1836 89.5331 91.5291 89.3571 87.1062 C 89.1811 82.6834 86.7151 80.4288 84.0411 80.514 C 81.3691 80.5991 79.5001 82.9918 79.6771 87.4146 Z" />
          <ellipse
             style="opacity:1;fill:#4a1d00;fill-opacity:1;fill-rule:evenodd;stroke:none;stroke-width:0.264916;stroke-linecap:round;stroke-linejoin:round;stroke-miterlimit:4;stroke-dasharray:none;stroke-opacity:1"
             id="ellipse951"
             cx="84.50804000000001"
             cy="88.055946"
             rx="2.7689352000000014"
             ry="4.447568399999994"
             sodipodi:insensitive="true" />
          <path
             style="fill:#4a1d00;fill-opacity:1;stroke:none;stroke-linecap:butt;stroke-linejoin:miter;stroke-opacity:1;stroke-width:0.832115"
             d="M 88.3731 92.5723 C 88.3731 92.5723 88.4011 86.53 84.6451 86.6449 C 80.3981 86.774 80.8931 90.2206 81.2731 92.6573 C 81.5291 94.2944 79.1551 86.1174 79.8721 84.6117 C 80.4421 83.4137 83.0591 79.7824 84.5231 80.4488 C 84.7771 80.5644 87.4691 81.2233 87.9211 81.88 C 88.1531 82.2151 89.4401 86.0495 89.4401 86.0495 C 89.0481 88.4876 89.1901 91.3268 88.3731 92.5723 Z"
             id="path953" />
          <path
             id="path955"
             style="fill:none;fill-opacity:1;opacity:1;stroke:#000000;stroke-dasharray:none;stroke-linecap:round;stroke-linejoin:round;stroke-miterlimit:4;stroke-opacity:1;stroke-width:0.692236"
             d="M 89.3281 87.0717 C 89.5051 91.4945 87.4801 95.1491 84.8071 95.2342 C 82.1341 95.3194 79.8241 91.8029 79.6481 87.3801 C 79.4721 82.9572 81.7521 80.5514 84.4261 80.4664 C 87.0981 80.3811 89.1521 82.649 89.3281 87.0717 Z" />
        </g>
      </g>
      <path
         style="display:inline;fill:#381600;fill-opacity:1;stroke:#000000;stroke-width:0.850933;stroke-linecap:round;stroke-linejoin:round;stroke-opacity:1"
         d="m 130.756,44.8504 c -2.95792,10.892268 -2.12783,9.41926 -5.18507,15.489556 C 114.0758,54.291593 100.47605,60.048812 88.2011,61.7987 L 102.154,32.4071 Z"
         id="hair_under"
         sodipodi:nodetypes="ccccc" />
      <path
         id="hair_front"
         style="display:inline;fill:#462500;fill-opacity:1;stroke:#000000;stroke-width:0.701206;stroke-linecap:round;stroke-linejoin:round;stroke-miterlimit:4;stroke-dasharray:none;stroke-opacity:1"
         d="m 49.0123,48.8358 c 0,0 -7.0774,-2.7325 -8.1112,-4.7107 -1.0338,-1.9782 -1.4048,11.8598 7.1886,16.1416 1.1781,8.8883 8.293533,10.211527 10.7836,10.7587 -2.637285,1.335472 -3.706207,1.331766 -7.4738,-0.7506 2.074058,3.135216 3.639661,5.89946 12.042268,5.391102 0,0 3.763045,-1.259311 5.094445,-2.593611 1.3314,-1.3343 3.486687,-2.622591 14.996587,-1.369091 15.6156,1.038 11.9517,-23.4606 26.7382,-24.2946 6.733,-0.3799 14.808,11.8189 14.986,12.5959 2.728,0.3108 6.064,-13.4119 5.455,-14.3635 -0.608,-0.9514 1.781,-22.3985 -13.455,-25.3299 -15.267,-2.81 -22.9626,2.1156 -25.5797,5.2907 -2.1072,2.5564 -10.106,15.6195 -18.9357,17.5168 -8.8297,1.8973 -21.5686,-4.1978 -24.2239,-10.5731 -3.1674,4.219 -4.5753,14.0241 0.4946,16.2903"
         sodipodi:nodetypes="csccccsccccccscc" />
    </g>
  </g>
</svg>
